name processed_emg_signals
nRows=65
nColumns=7
 
endheader
time	RGLTMED	RRF	RADDLONG	RST	RTA	RGM
0.677	0.1766430696002531	0.124360468000128	0.0373110410590131	0.0349566840595722	0.197979887761365	0.2775226980417414
0.678	0.176165801512744	0.124841636495683	0.0370700950884986	0.0340565460878266	0.1983820674573929	0.277356024329879
0.679	0.1756896118516173	0.1252813303977577	0.0368291508126495	0.0331999784561147	0.198752775544096	0.2771775586201609
0.68	0.175213642665183	0.1256787507048951	0.0365887090345614	0.032386533301956	0.1990908379846104	0.2769878347752885
0.681	0.1747370343714172	0.1260331473348863	0.0363492813448049	0.0316157321882412	0.199395111083357	0.2767874073044428
0.682	0.1742589269698781	0.1263438204788394	0.0361113895122011	0.0308870668256616	0.1996644831494378	0.2765768498525688
0.683	0.1737784612671987	0.1266101218894066	0.0358755648512926	0.0301999998218332	0.1998978761217945	0.2763567536462007
0.684	0.1732947801162074	0.1268314561025709	0.0356423475675262	0.0295539654555998	0.2000942471533538	0.2761277258996829
0.685	0.1728070296683564	0.1270072815921238	0.0354122860811888	0.028948370475123	0.2002525901512906	0.2758903881860075
0.686	0.1723143606388432	0.1271371118556492	0.0351859363313008	0.0283825949184639	0.2003719372704785	0.2756453747769354
0.687	0.171815929583574	0.127220516430557	0.0349638610605682	0.027855992955497	0.2004513603572576	0.2753933309575596
0.6880000000000001	0.1713109001869309	0.1272571218383679	0.0347466290825122	0.027367893750063	0.2004899723409165	0.2751349113207046
0.6890000000000001	0.1707984445591946	0.1272466124551829	0.0345348145318251	0.0269176023412919	0.2004869285707629	0.2748707780465823
0.6900000000000001	0.1702777445424402	0.1271887313060029	0.0343289960989227	0.0265044005430534	0.2004414280970735	0.2746015991728066
0.6910000000000001	0.1697479930235811	0.12708328078035	0.0341297562496913	0.0261275478605047	0.2003527148946435	0.2743280468593598
0.6920000000000001	0.1692083952533028	0.1269301232663997	0.0339376804312916	0.0257862824226651	0.2002200790277982	0.2740507956525287
0.6930000000000001	0.1686581701693792	0.1267291817006545	0.0337533562650261	0.0254798219300264	0.2000428577559089	0.2737705207514299
0.6940000000000001	0.1680965517226958	0.1264804400299672	0.0335773727273065	0.0252073646161884	0.1998204365786861	0.2734878962805134
0.6950000000000001	0.1675227902039995	0.1261839435827268	0.033410319319853	0.024968090222567	0.199552250220901	0.2732035935711464
0.6960000000000001	0.1669361535691936	0.125839799346404	0.0332527852304129	0.0247611609852659	0.1992377835565978	0.2729182794552935
0.6970000000000001	0.1663359287608863	0.1254481761492145	0.0331053584851913	0.0245857226332033	0.1988765724729816	0.2726326145739361
0.6980000000000001	0.1657214230237164	0.1250093047445033	0.0329686250942558	0.024440905396621	0.1984682046742191	0.272347251702539
0.6990000000000001	0.165091965210787	0.1245234777972408	0.0328431681910855	0.0243258250251497	0.1980123204250875	0.272062834095189
0.7000000000000001	0.1644469070781958	0.1239910497727323	0.0327295671673972	0.02423958381455	0.1975086132342448	0.271779993848341
0.7010000000000001	0.1637856245643054	0.12341243672826	0.032628396804404	0.024181271641259	0.1969568304767392	0.2714993502843917
0.7020000000000001	0.1631075190500939	0.1227881160088295	0.0325402264015688	0.024149967003861	0.1963567739554595	0.2712215083548996
0.7030000000000001	0.1624120185968793	0.1221186258485863	0.0324656189040101	0.024144738070565	0.1957083004014093	0.2709470570631693
0.704	0.1616985791578548	0.1214045648798292	0.0324051300295765	0.0241646437317891	0.1950113219128985	0.2706765679061238
0.705	0.160966685760352	0.1206465915518598	0.0323593073967351	0.0242087346570323	0.194265806334008	0.2704105933359541
0.706	0.1602158536561192	0.1198454234622514	0.0323286896543524	0.0242760543551849	0.1934717775728234	0.270149665242931
0.707	0.1594456294373173	0.119001836603232	0.0323138056145618	0.0243656402374724	0.1926293158600295	0.269894293461809
0.708	0.1586555921159641	0.1181166645257886	0.0323151733898515	0.0244765246821827	0.1917385579484493	0.2696449643052236
0.709	0.1578453541644723	0.1171907974238678	0.0323332995355733	0.0246077361003256	0.1907996972540906	0.2694021391280255
0.71	0.1570145625146979	0.1162251811406662	0.0323686781989728	0.0247583000013403	0.1898129839391651	0.269166252926788
0.711	0.156162899512657	0.1152208160987907	0.032421790275909	0.0249272400579724	0.1887787249373979	0.2689377129786725
0.712	0.1552900838257253	0.1141787561558554	0.0324931025763798	0.0251135791694214	0.1876972839217446	0.2687168975236425
0.713	0.1543958712987238	0.1131001073870391	0.0325830669999639	0.0253163405218572	0.1865690812144791	0.2685041544936294
0.714	0.153480055754825	0.1119860267961301	0.0326921197222621	0.0255345486454275	0.1853945936395422	0.2682998002921254
0.715	0.1525424697367923	0.1108377209565653	0.0328206803934051	0.0257672304668491	0.1841743543171832	0.2681041186279124
0.716	0.1515829851835963	0.1096564445840775	0.0329691513496355	0.0260134163566889	0.1829089524012561	0.2679173594069839
0.717	0.1506015140371149	0.1084434990425264	0.0331379168390597	0.0262721411704716	0.1815990327599404	0.2677397376871335
0.718	0.1495980087731988	0.107200230784518	0.033327342262636	0.0265424452826895	0.1802452956011244	0.2675714326996066
0.719	0.1485724628511087	0.1059280297284075	0.033537773431546	0.0268233756128142	0.1788484960439226	0.2674125869419434
0.72	0.1475249110750525	0.1046283275732684	0.0337695358420899	0.0271139866423339	0.1774094436381563	0.2672633053455323
0.721	0.1464554298614195	0.1033025960533913	0.0340229339692106	0.0274133414218328	0.1759290018337757	0.2671236545208609
0.722	0.1453641374053927	0.101952345133933	0.0342982505796808	0.0277205125670608	0.1744080874022342	0.2669936620828612
0.723	0.1442511937411006	0.1005791211493043	0.0345957460659731	0.0280345832429097	0.1728476698117797	0.266873316058433
0.724	0.1431168006903954	0.099184504885936	0.0349156578017124	0.02835464813419	0.1712487705584725	0.2667625643777643
0.725	0.1419612016966719	0.097770109611043	0.0352581995197348	0.0286798144020146	0.1696124624545735	0.2666613144505765
0.726	0.1407846815415977	0.096337579049007	0.0356235607136735	0.0290092026245933	0.1679398688757531	0.2665694328277951
0.727	0.1395875659439887	0.0948885853070756	0.0360119060641334	0.0293419477211197	0.1662321629684843	0.2664867449483636
0.728	0.1383702210413343	0.0934248267521857	0.0364233748903664	0.0296771998574605	0.1644905668189454	0.2664130349703369
0.729	0.1371330527558636	0.0919480258409254	0.0368580806284801	0.0300141253322018	0.1627163505849569	0.2663480456846784
0.73	0.1358765060482344	0.0904599269050388	0.0373161103371126	0.030351907441707	0.1609108315925958	0.2662914785099245
0.731	0.1346010640629548	0.0889622938953557	0.0377975242316132	0.0306897473227702	0.159075373399236	0.2662429935659124
0.732	0.1333072471706286	0.0874569080875394	0.0383023552477395	0.0310268647715199	0.1572113848246854	0.2662022098251279
0.733	0.1319956119128777	0.0859455657534571	0.0388306086360024	0.0313624990371745	0.1553203189522023	0.2661687053407706
0.734	0.1306667498565457	0.0844300758024203	0.0393822615877778	0.0316959095892582	0.1534036721014036	0.26614201755111
0.735	0.1293212863642436	0.0829122573968421	0.0399572628943957	0.032026376856842	0.1514629827754638	0.2661216436599362
0.736	0.1279598792886892	0.0813939375472309	0.0405555326404502	0.0323532029383411	0.149499830585307	0.2661070410931762
0.737	0.1265832175982519	0.0798769486915929	0.0411769619325065	0.0326757122804185	0.1475158351537481	0.2660976280321618
0.738	0.1251920199409227	0.0783631262644793	0.041821412664461	0.0329932523245347	0.1455126550026662	0.2660927840243642
0.739	0.123787033153503	0.0768543062608953	0.0424887173206548	0.0333051941196268	0.1434919864262877	0.2660918506727075
0.74	0.1223690307224014	0.0753523228002137	0.0431786788179144	0.0336109328994137	0.1414555623536084	0.2660941324044606
0.741	0.1209388112020357	0.0738590056950319	0.0438910703875951	0.0339098886228068	0.139405151202923	0.266098897320315
